<mxfile host="app.diagrams.net" modified="2023-11-17T13:15:15.448Z" agent="Mozilla/5.0 (Macintosh; Intel Mac OS X 10_15_7) AppleWebKit/537.36 (KHTML, like Gecko) Chrome/118.0.0.0 Safari/537.36" etag="Y-cSYQUvnXjw3uqy5hiz" version="22.1.2" type="device">
  <diagram name="Page-1" id="hJvC4-vO4WEwfhg_EJ4K">
    <mxGraphModel dx="1306" dy="835" grid="1" gridSize="10" guides="1" tooltips="1" connect="1" arrows="1" fold="1" page="1" pageScale="1" pageWidth="827" pageHeight="1169" math="0" shadow="0">
      <root>
        <mxCell id="0" />
        <mxCell id="1" parent="0" />
        <mxCell id="z1wIyUYjQScl-t-iSiG6-20" value="" style="edgeStyle=orthogonalEdgeStyle;rounded=0;orthogonalLoop=1;jettySize=auto;html=1;" edge="1" parent="1" source="z1wIyUYjQScl-t-iSiG6-8" target="z1wIyUYjQScl-t-iSiG6-18">
          <mxGeometry relative="1" as="geometry" />
        </mxCell>
        <mxCell id="z1wIyUYjQScl-t-iSiG6-8" value="" style="shape=actor;whiteSpace=wrap;html=1;" vertex="1" parent="1">
          <mxGeometry x="394" y="120" width="40" height="60" as="geometry" />
        </mxCell>
        <mxCell id="z1wIyUYjQScl-t-iSiG6-25" style="edgeStyle=orthogonalEdgeStyle;rounded=0;orthogonalLoop=1;jettySize=auto;html=1;entryX=0.5;entryY=0;entryDx=0;entryDy=0;" edge="1" parent="1" source="z1wIyUYjQScl-t-iSiG6-18" target="z1wIyUYjQScl-t-iSiG6-23">
          <mxGeometry relative="1" as="geometry" />
        </mxCell>
        <mxCell id="z1wIyUYjQScl-t-iSiG6-26" style="edgeStyle=orthogonalEdgeStyle;rounded=0;orthogonalLoop=1;jettySize=auto;html=1;exitX=1;exitY=0.5;exitDx=0;exitDy=0;entryX=0.5;entryY=0;entryDx=0;entryDy=0;" edge="1" parent="1" source="z1wIyUYjQScl-t-iSiG6-18" target="z1wIyUYjQScl-t-iSiG6-24">
          <mxGeometry relative="1" as="geometry" />
        </mxCell>
        <mxCell id="z1wIyUYjQScl-t-iSiG6-28" style="edgeStyle=orthogonalEdgeStyle;rounded=0;orthogonalLoop=1;jettySize=auto;html=1;exitX=0.5;exitY=1;exitDx=0;exitDy=0;entryX=0.5;entryY=0;entryDx=0;entryDy=0;" edge="1" parent="1" source="z1wIyUYjQScl-t-iSiG6-18" target="z1wIyUYjQScl-t-iSiG6-21">
          <mxGeometry relative="1" as="geometry" />
        </mxCell>
        <mxCell id="z1wIyUYjQScl-t-iSiG6-18" value="Prompt" style="rounded=1;whiteSpace=wrap;html=1;" vertex="1" parent="1">
          <mxGeometry x="354" y="220" width="120" height="40" as="geometry" />
        </mxCell>
        <mxCell id="z1wIyUYjQScl-t-iSiG6-35" style="edgeStyle=orthogonalEdgeStyle;rounded=0;orthogonalLoop=1;jettySize=auto;html=1;exitX=0;exitY=0.5;exitDx=0;exitDy=0;entryX=0.5;entryY=0;entryDx=0;entryDy=0;" edge="1" parent="1" source="z1wIyUYjQScl-t-iSiG6-21" target="z1wIyUYjQScl-t-iSiG6-34">
          <mxGeometry relative="1" as="geometry" />
        </mxCell>
        <mxCell id="z1wIyUYjQScl-t-iSiG6-36" style="edgeStyle=orthogonalEdgeStyle;rounded=0;orthogonalLoop=1;jettySize=auto;html=1;exitX=1;exitY=0.5;exitDx=0;exitDy=0;entryX=0.5;entryY=0;entryDx=0;entryDy=0;" edge="1" parent="1" source="z1wIyUYjQScl-t-iSiG6-21" target="z1wIyUYjQScl-t-iSiG6-33">
          <mxGeometry relative="1" as="geometry" />
        </mxCell>
        <mxCell id="z1wIyUYjQScl-t-iSiG6-21" value="promptClassifierHandeler" style="rounded=1;whiteSpace=wrap;html=1;" vertex="1" parent="1">
          <mxGeometry x="339" y="410" width="150" height="40" as="geometry" />
        </mxCell>
        <mxCell id="z1wIyUYjQScl-t-iSiG6-23" value="pdfQaHandler" style="rounded=1;whiteSpace=wrap;html=1;" vertex="1" parent="1">
          <mxGeometry x="130" y="330" width="120" height="40" as="geometry" />
        </mxCell>
        <mxCell id="z1wIyUYjQScl-t-iSiG6-24" value="regenerateHandler" style="rounded=1;whiteSpace=wrap;html=1;" vertex="1" parent="1">
          <mxGeometry x="580" y="330" width="120" height="40" as="geometry" />
        </mxCell>
        <mxCell id="z1wIyUYjQScl-t-iSiG6-29" value="option: pdfQa" style="text;html=1;strokeColor=none;fillColor=none;align=center;verticalAlign=middle;whiteSpace=wrap;rounded=0;" vertex="1" parent="1">
          <mxGeometry x="220" y="210" width="90" height="30" as="geometry" />
        </mxCell>
        <mxCell id="z1wIyUYjQScl-t-iSiG6-30" value="option: regenerate" style="text;html=1;strokeColor=none;fillColor=none;align=center;verticalAlign=middle;whiteSpace=wrap;rounded=0;" vertex="1" parent="1">
          <mxGeometry x="500" y="210" width="110" height="30" as="geometry" />
        </mxCell>
        <mxCell id="z1wIyUYjQScl-t-iSiG6-31" value="option: generalQa" style="text;html=1;strokeColor=none;fillColor=none;align=center;verticalAlign=middle;whiteSpace=wrap;rounded=0;" vertex="1" parent="1">
          <mxGeometry x="410" y="320" width="90" height="30" as="geometry" />
        </mxCell>
        <mxCell id="z1wIyUYjQScl-t-iSiG6-33" value="summarizaitonHandler" style="rounded=1;whiteSpace=wrap;html=1;" vertex="1" parent="1">
          <mxGeometry x="495" y="530" width="175" height="40" as="geometry" />
        </mxCell>
        <mxCell id="z1wIyUYjQScl-t-iSiG6-34" value="retrievalAugmentedHandler" style="rounded=1;whiteSpace=wrap;html=1;" vertex="1" parent="1">
          <mxGeometry x="190" y="530" width="175" height="40" as="geometry" />
        </mxCell>
        <mxCell id="z1wIyUYjQScl-t-iSiG6-37" value="rag" style="text;html=1;strokeColor=none;fillColor=none;align=center;verticalAlign=middle;whiteSpace=wrap;rounded=0;" vertex="1" parent="1">
          <mxGeometry x="210" y="460" width="90" height="30" as="geometry" />
        </mxCell>
        <mxCell id="z1wIyUYjQScl-t-iSiG6-38" value="else" style="text;html=1;strokeColor=none;fillColor=none;align=center;verticalAlign=middle;whiteSpace=wrap;rounded=0;" vertex="1" parent="1">
          <mxGeometry x="560" y="460" width="90" height="30" as="geometry" />
        </mxCell>
      </root>
    </mxGraphModel>
  </diagram>
</mxfile>
